<svg width="28" height="28" viewBox="0 0 28 28" fill="none" xmlns="http://www.w3.org/2000/svg">
<path d="M12.5416 4.08334C17.213 4.08334 20.9999 7.87027 20.9999 12.5417C20.9999 14.4564 20.3637 16.2226 19.2911 17.6403L24.1582 22.5084C24.6138 22.964 24.6138 23.7027 24.1582 24.1583C23.7026 24.6139 22.9639 24.6139 22.5083 24.1583L17.6402 19.2912C16.2225 20.3638 14.4563 21 12.5416 21C7.87018 21 4.08325 17.2131 4.08325 12.5417C4.08325 7.87027 7.87018 4.08334 12.5416 4.08334ZM12.5416 6.41668C9.15884 6.41668 6.41659 9.15893 6.41659 12.5417C6.41659 15.9244 9.15884 18.6667 12.5416 18.6667C15.9243 18.6667 18.6666 15.9244 18.6666 12.5417C18.6666 9.15893 15.9243 6.41668 12.5416 6.41668Z" fill="#BDBDBD"/>
</svg>
